<svg width="375" height="333" viewBox="0 0 375 333" fill="none" xmlns="http://www.w3.org/2000/svg">
<g clip-path="url(#clip0_0_1)">
<path fill-rule="evenodd" clip-rule="evenodd" d="M358.763 213.338C349.885 255.184 318.531 292.286 279.72 307.489C242.633 322.016 202.43 307.531 168.775 287.759C140.386 271.08 131.587 237.042 112.809 209.428C84.7054 168.099 19.2784 138.49 33.5062 88.8367C47.496 40.0149 117.382 46.4311 164.079 30.5049C202.071 17.5477 241.501 -11.8507 276.661 5.90797C310.923 23.213 307.118 73.463 321.607 110.069C335.582 145.377 366.817 175.381 358.763 213.338Z" fill="#FFF3F0"/>
<path opacity="0.32" fill-rule="evenodd" clip-rule="evenodd" d="M328.008 23.8502C384.271 61.2499 352.17 142.846 331.57 207.24C315.594 257.18 287.397 303.715 235.706 312.38C158.419 325.335 57.5705 331.195 30.2592 257.748C3.42726 185.591 91.7313 135.648 152.296 88.0713C206.523 45.473 270.621 -14.2967 328.008 23.8502Z" fill="#C3CEEB"/>
<circle cx="13.9928" cy="268.205" r="2.67635" fill="#B4DDCC"/>
<path d="M11.3142 302.328C11.3142 304.546 9.51683 306.343 7.29968 306.343C5.08252 306.343 3.28516 304.546 3.28516 302.328C3.28516 300.111 5.08252 298.314 7.29968 298.314C9.51683 298.314 11.3142 300.111 11.3142 302.328Z" fill="#DFF5E5"/>
<path d="M32.7257 308.016C32.7257 309.494 31.5275 310.692 30.0494 310.692C28.5713 310.692 27.373 309.494 27.373 308.016C27.373 306.538 28.5713 305.339 30.0494 305.339C31.5275 305.339 32.7257 306.538 32.7257 308.016Z" fill="#C3CEEB"/>
<path d="M62.5011 321.397C62.5011 322.876 61.3029 324.074 59.8248 324.074C58.3467 324.074 57.1484 322.876 57.1484 321.397C57.1484 319.919 58.3467 318.721 59.8248 318.721C61.3029 318.721 62.5011 319.919 62.5011 321.397Z" fill="#FFEEFF"/>
<path d="M195.982 330.765C195.982 332.243 194.783 333.441 193.305 333.441C191.827 333.441 190.629 332.243 190.629 330.765C190.629 329.286 191.827 328.088 193.305 328.088C194.783 328.088 195.982 329.286 195.982 330.765Z" fill="#C3CEEB"/>
<path d="M99.6328 310.023C99.6328 312.61 97.5359 314.707 94.9492 314.707C92.3625 314.707 90.2656 312.61 90.2656 310.023C90.2656 307.436 92.3625 305.339 94.9492 305.339C97.5359 305.339 99.6328 307.436 99.6328 310.023Z" fill="#EDC0B4"/>
<path d="M34.7344 157.806C34.7344 160.393 32.6375 162.49 30.0508 162.49C27.4641 162.49 25.3672 160.393 25.3672 157.806C25.3672 155.219 27.4641 153.122 30.0508 153.122C32.6375 153.122 34.7344 155.219 34.7344 157.806Z" fill="#E6F6FD"/>
<path d="M66.5154 298.481C66.5154 302.638 63.1453 306.009 58.9882 306.009C54.831 306.009 51.4609 302.638 51.4609 298.481C51.4609 294.324 54.831 290.954 58.9882 290.954C63.1453 290.954 66.5154 294.324 66.5154 298.481Z" fill="#FFE700"/>
<circle cx="330.133" cy="44.3956" r="2.67635" fill="#EDC0B4"/>
<circle cx="331.472" cy="25.6611" r="4.01452" fill="#EEF3FF"/>
<circle cx="357.569" cy="43.0574" r="4.01452" fill="#C3CEEB"/>
<circle cx="306.383" cy="13.6177" r="8.02904" fill="#FBE84D"/>
</g>
<path d="M69.8044 176.602C66.2252 176.602 63.3172 175.796 61.0802 174.186C58.8433 172.575 57.4832 170.311 57 167.394L63.6035 166.374C63.9256 167.824 64.6683 168.96 65.8315 169.783C67.0127 170.589 68.489 170.991 70.2607 170.991C71.7998 170.991 72.9988 170.687 73.8578 170.079C74.7168 169.452 75.1463 168.602 75.1463 167.529C75.1463 166.831 74.9762 166.294 74.6362 165.918C74.3141 165.542 73.6609 165.175 72.6766 164.817C71.6924 164.442 70.0549 163.949 67.7643 163.341C65.3126 162.697 63.3709 162.008 61.9392 161.274C60.5255 160.522 59.5054 159.645 58.879 158.643C58.2527 157.623 57.9395 156.38 57.9395 154.912C57.9395 153.122 58.4048 151.557 59.3354 150.214C60.2839 148.872 61.6171 147.834 63.3351 147.101C65.071 146.367 67.0753 146 69.348 146C71.585 146 73.5804 146.349 75.3342 147.047C77.0879 147.745 78.5017 148.747 79.5754 150.053C80.6671 151.342 81.3292 152.845 81.5619 154.563L74.9583 155.744C74.7794 154.509 74.2067 153.534 73.2404 152.818C72.2919 152.102 71.0302 151.7 69.4554 151.61C67.9343 151.539 66.7084 151.78 65.7778 152.335C64.8473 152.872 64.382 153.624 64.382 154.59C64.382 155.18 64.5699 155.664 64.9457 156.039C65.3394 156.415 66.0821 156.8 67.1737 157.194C68.2654 157.57 69.9744 158.053 72.3008 158.643C74.6452 159.252 76.4974 159.932 77.8575 160.683C79.2354 161.435 80.2286 162.339 80.8371 163.395C81.4634 164.433 81.7766 165.712 81.7766 167.233C81.7766 169.166 81.2934 170.839 80.3271 172.253C79.3786 173.649 78.0006 174.723 76.1931 175.474C74.4036 176.226 72.274 176.602 69.8044 176.602Z" fill="black"/>
<path d="M100.273 146C102.957 146 105.319 146.662 107.359 147.986C109.399 149.293 110.974 151.109 112.084 153.436C113.193 155.744 113.748 158.366 113.748 161.301C113.748 164.2 113.202 166.813 112.111 169.139C111.019 171.448 109.462 173.273 107.44 174.615C105.436 175.94 103.127 176.602 100.514 176.602C97.5973 176.602 95.1098 175.841 93.0517 174.32V182.865H86.5288V146.805H92.2464V148.899C94.376 146.966 97.0514 146 100.273 146ZM99.521 170.803C101.15 170.803 102.51 170.392 103.601 169.569C104.711 168.745 105.534 167.618 106.071 166.186C106.626 164.755 106.903 163.126 106.903 161.301C106.903 159.493 106.626 157.874 106.071 156.442C105.516 155.01 104.666 153.883 103.521 153.06C102.393 152.219 100.988 151.798 99.3063 151.798C96.9262 151.798 95.1545 152.648 93.9913 154.348C92.8281 156.031 92.2464 158.348 92.2464 161.301C92.2464 164.254 92.837 166.58 94.0181 168.28C95.1992 169.962 97.0335 170.803 99.521 170.803Z" fill="black"/>
<path d="M141.435 151.396C141.9 152.326 142.196 153.293 142.321 154.295C142.464 155.279 142.536 156.514 142.536 157.999V175.796H136.872V171.904C135.637 173.533 134.205 174.723 132.577 175.474C130.948 176.226 128.989 176.602 126.698 176.602C124.658 176.602 122.904 176.217 121.437 175.447C119.987 174.66 118.878 173.604 118.108 172.28C117.356 170.956 116.981 169.479 116.981 167.851C116.981 165.721 117.509 163.94 118.564 162.509C119.638 161.077 121.311 159.968 123.584 159.18C124.855 158.769 126.313 158.42 127.96 158.133C129.624 157.829 131.995 157.444 135.073 156.979L136.201 156.818C136.075 155.136 135.539 153.901 134.59 153.114C133.659 152.326 132.219 151.932 130.268 151.932C128.837 151.932 127.53 152.263 126.349 152.926C125.186 153.588 124.381 154.608 123.933 155.986L118.028 154.134C118.761 151.592 120.157 149.606 122.215 148.174C124.273 146.725 126.958 146 130.268 146C132.953 146 135.252 146.438 137.167 147.315C139.1 148.192 140.522 149.552 141.435 151.396ZM135.476 166.643C135.87 165.694 136.084 164.191 136.12 162.133C133.311 162.58 131.288 162.92 130.054 163.153C128.837 163.368 127.763 163.636 126.832 163.958C125.669 164.388 124.792 164.907 124.202 165.515C123.611 166.124 123.316 166.875 123.316 167.77C123.316 168.862 123.718 169.748 124.524 170.428C125.347 171.108 126.501 171.448 127.987 171.448C129.365 171.448 130.572 171.206 131.61 170.723C132.666 170.222 133.516 169.604 134.161 168.871C134.805 168.137 135.243 167.394 135.476 166.643Z" fill="black"/>
<path d="M161.04 176.602C158.123 176.602 155.591 175.948 153.443 174.642C151.314 173.318 149.685 171.501 148.558 169.193C147.431 166.866 146.858 164.236 146.84 161.301C146.84 158.348 147.422 155.717 148.585 153.409C149.748 151.082 151.403 149.266 153.551 147.96C155.716 146.653 158.24 146 161.121 146C163.304 146 165.281 146.376 167.053 147.127C168.825 147.879 170.301 148.953 171.482 150.349C172.681 151.727 173.505 153.364 173.952 155.261L167.51 157.006C167.026 155.467 166.194 154.259 165.013 153.382C163.85 152.505 162.526 152.067 161.04 152.067C158.606 152.067 156.772 152.908 155.537 154.59C154.32 156.272 153.703 158.509 153.685 161.301C153.703 164.146 154.338 166.401 155.591 168.065C156.844 169.712 158.66 170.535 161.04 170.535C162.722 170.535 164.065 170.159 165.067 169.408C166.069 168.638 166.829 167.484 167.348 165.945L173.952 167.421C173.057 170.374 171.491 172.647 169.254 174.239C167.017 175.814 164.279 176.602 161.04 176.602Z" fill="black"/>
<path d="M182.786 163.099C183.037 165.497 183.797 167.341 185.068 168.629C186.356 169.9 188.092 170.535 190.275 170.535C191.85 170.535 193.219 170.186 194.382 169.488C195.546 168.772 196.44 167.743 197.067 166.401L203.456 168.334C202.722 170.052 201.702 171.537 200.395 172.79C199.107 174.025 197.622 174.973 195.939 175.635C194.275 176.28 192.512 176.602 190.651 176.602C187.752 176.602 185.184 175.966 182.947 174.696C180.71 173.425 178.965 171.654 177.713 169.381C176.478 167.108 175.86 164.522 175.86 161.623C175.86 158.491 176.46 155.753 177.659 153.409C178.876 151.047 180.576 149.221 182.759 147.933C184.942 146.644 187.448 146 190.275 146C193.067 146 195.483 146.617 197.523 147.852C199.563 149.087 201.129 150.85 202.221 153.14C203.312 155.413 203.858 158.089 203.858 161.167C203.858 161.775 203.831 162.419 203.778 163.099H182.786ZM190.544 151.664C186.249 151.664 183.717 153.847 182.947 158.214H197.228C196.942 155.959 196.253 154.304 195.161 153.248C194.087 152.192 192.548 151.664 190.544 151.664Z" fill="black"/>
<path d="M204.96 146.752L211.296 146.805L216.96 165.408L222.704 146.805H228.153L233.871 165.408L239.562 146.805H245.897L237.039 175.796H231.992L225.415 155.852L218.865 175.796H213.819L204.96 146.752Z" fill="black"/>
<path d="M250.204 146.805H256.674V175.796H250.204V146.805Z" fill="black"/>
<path d="M274.835 176.602C271.256 176.602 268.348 175.796 266.111 174.186C263.874 172.575 262.514 170.311 262.03 167.394L268.634 166.374C268.956 167.824 269.699 168.96 270.862 169.783C272.043 170.589 273.519 170.991 275.291 170.991C276.83 170.991 278.029 170.687 278.888 170.079C279.747 169.452 280.177 168.602 280.177 167.529C280.177 166.831 280.007 166.294 279.667 165.918C279.344 165.542 278.691 165.175 277.707 164.817C276.723 164.442 275.085 163.949 272.795 163.341C270.343 162.697 268.401 162.008 266.97 161.274C265.556 160.522 264.536 159.645 263.909 158.643C263.283 157.623 262.97 156.38 262.97 154.912C262.97 153.122 263.435 151.557 264.366 150.214C265.314 148.872 266.647 147.834 268.365 147.101C270.101 146.367 272.106 146 274.378 146C276.615 146 278.611 146.349 280.364 147.047C282.118 147.745 283.532 148.747 284.606 150.053C285.697 151.342 286.36 152.845 286.592 154.563L279.989 155.744C279.81 154.509 279.237 153.534 278.271 152.818C277.322 152.102 276.061 151.7 274.486 151.61C272.965 151.539 271.739 151.78 270.808 152.335C269.878 152.872 269.412 153.624 269.412 154.59C269.412 155.18 269.6 155.664 269.976 156.039C270.37 156.415 271.112 156.8 272.204 157.194C273.296 157.57 275.005 158.053 277.331 158.643C279.676 159.252 281.528 159.932 282.888 160.683C284.266 161.435 285.259 162.339 285.867 163.395C286.494 164.433 286.807 165.712 286.807 167.233C286.807 169.166 286.324 170.839 285.357 172.253C284.409 173.649 283.031 174.723 281.223 175.474C279.434 176.226 277.304 176.602 274.835 176.602Z" fill="black"/>
<path d="M296.928 163.099C297.178 165.497 297.939 167.341 299.209 168.629C300.498 169.9 302.234 170.535 304.417 170.535C305.992 170.535 307.361 170.186 308.524 169.488C309.687 168.772 310.582 167.743 311.209 166.401L317.597 168.334C316.864 170.052 315.844 171.537 314.537 172.79C313.249 174.025 311.763 174.973 310.081 175.635C308.417 176.28 306.654 176.602 304.793 176.602C301.894 176.602 299.326 175.966 297.089 174.696C294.852 173.425 293.107 171.654 291.854 169.381C290.62 167.108 290.002 164.522 290.002 161.623C290.002 158.491 290.602 155.753 291.801 153.409C293.018 151.047 294.718 149.221 296.901 147.933C299.084 146.644 301.59 146 304.417 146C307.209 146 309.625 146.617 311.665 147.852C313.705 149.087 315.271 150.85 316.363 153.14C317.454 155.413 318 158.089 318 161.167C318 161.775 317.973 162.419 317.919 163.099H296.928ZM304.686 151.664C300.391 151.664 297.858 153.847 297.089 158.214H311.37C311.083 155.959 310.394 154.304 309.303 153.248C308.229 152.192 306.69 151.664 304.686 151.664Z" fill="black"/>
<path d="M94.1292 219.865V202.585H101.041C102.273 202.585 103.269 202.833 104.029 203.329C104.789 203.817 105.345 204.433 105.697 205.177C106.049 205.921 106.225 206.673 106.225 207.433C106.225 208.401 106.005 209.205 105.565 209.845C105.133 210.485 104.537 210.913 103.777 211.129V210.529C104.857 210.753 105.665 211.253 106.201 212.029C106.745 212.805 107.017 213.673 107.017 214.633C107.017 215.665 106.825 216.573 106.441 217.357C106.065 218.141 105.489 218.757 104.713 219.205C103.937 219.645 102.961 219.865 101.785 219.865H94.1292ZM97.4412 216.793H101.449C101.889 216.793 102.281 216.701 102.625 216.517C102.969 216.325 103.237 216.061 103.429 215.725C103.629 215.381 103.729 214.977 103.729 214.513C103.729 214.105 103.645 213.741 103.477 213.421C103.309 213.101 103.053 212.849 102.709 212.665C102.373 212.473 101.953 212.377 101.449 212.377H97.4412V216.793ZM97.4412 209.329H100.993C101.361 209.329 101.689 209.265 101.977 209.137C102.265 209.009 102.493 208.813 102.661 208.549C102.829 208.277 102.913 207.929 102.913 207.505C102.913 206.977 102.749 206.533 102.421 206.173C102.093 205.813 101.617 205.633 100.993 205.633H97.4412V209.329ZM109.41 219.865V206.905H112.29V210.073L111.978 209.665C112.146 209.217 112.37 208.809 112.65 208.441C112.93 208.073 113.274 207.769 113.682 207.529C113.994 207.337 114.334 207.189 114.702 207.085C115.07 206.973 115.45 206.905 115.842 206.881C116.234 206.849 116.626 206.857 117.018 206.905V209.953C116.658 209.841 116.238 209.805 115.758 209.845C115.286 209.877 114.858 209.985 114.474 210.169C114.09 210.345 113.766 210.581 113.502 210.877C113.238 211.165 113.038 211.509 112.902 211.909C112.766 212.301 112.698 212.745 112.698 213.241V219.865H109.41ZM122.643 220.225C121.715 220.225 120.927 220.049 120.279 219.697C119.639 219.337 119.151 218.861 118.815 218.269C118.487 217.669 118.323 217.009 118.323 216.289C118.323 215.689 118.415 215.141 118.599 214.645C118.783 214.149 119.079 213.713 119.487 213.337C119.903 212.953 120.459 212.633 121.155 212.377C121.635 212.201 122.207 212.045 122.871 211.909C123.535 211.773 124.287 211.645 125.127 211.525C125.967 211.397 126.891 211.257 127.899 211.105L126.723 211.753C126.723 210.985 126.539 210.421 126.171 210.061C125.803 209.701 125.187 209.521 124.323 209.521C123.843 209.521 123.343 209.637 122.823 209.869C122.303 210.101 121.939 210.513 121.731 211.105L118.779 210.169C119.107 209.097 119.723 208.225 120.627 207.553C121.531 206.881 122.763 206.545 124.323 206.545C125.467 206.545 126.483 206.721 127.371 207.073C128.259 207.425 128.931 208.033 129.387 208.897C129.643 209.377 129.795 209.857 129.843 210.337C129.891 210.817 129.915 211.353 129.915 211.945V219.865H127.059V217.201L127.467 217.753C126.835 218.625 126.151 219.257 125.415 219.649C124.687 220.033 123.763 220.225 122.643 220.225ZM123.339 217.657C123.939 217.657 124.443 217.553 124.851 217.345C125.267 217.129 125.595 216.885 125.835 216.613C126.083 216.341 126.251 216.113 126.339 215.929C126.507 215.577 126.603 215.169 126.627 214.705C126.659 214.233 126.675 213.841 126.675 213.529L127.635 213.769C126.667 213.929 125.883 214.065 125.283 214.177C124.683 214.281 124.199 214.377 123.831 214.465C123.463 214.553 123.139 214.649 122.859 214.753C122.539 214.881 122.279 215.021 122.079 215.173C121.887 215.317 121.743 215.477 121.647 215.653C121.559 215.829 121.515 216.025 121.515 216.241C121.515 216.537 121.587 216.793 121.731 217.009C121.883 217.217 122.095 217.377 122.367 217.489C122.639 217.601 122.963 217.657 123.339 217.657ZM141.867 219.865V213.745C141.867 213.449 141.851 213.073 141.819 212.617C141.787 212.153 141.687 211.689 141.519 211.225C141.351 210.761 141.075 210.373 140.691 210.061C140.315 209.749 139.779 209.593 139.083 209.593C138.803 209.593 138.503 209.637 138.183 209.725C137.863 209.813 137.563 209.985 137.283 210.241C137.003 210.489 136.771 210.857 136.587 211.345C136.411 211.833 136.323 212.481 136.323 213.289L134.451 212.401C134.451 211.377 134.659 210.417 135.075 209.521C135.491 208.625 136.115 207.901 136.947 207.349C137.787 206.797 138.843 206.521 140.115 206.521C141.131 206.521 141.959 206.693 142.599 207.037C143.239 207.381 143.735 207.817 144.087 208.345C144.447 208.873 144.703 209.425 144.855 210.001C145.007 210.569 145.099 211.089 145.131 211.561C145.163 212.033 145.179 212.377 145.179 212.593V219.865H141.867ZM133.011 219.865V206.905H135.915V211.201H136.323V219.865H133.011ZM153.315 220.225C152.123 220.225 151.079 219.925 150.183 219.325C149.287 218.725 148.587 217.909 148.083 216.877C147.587 215.845 147.339 214.681 147.339 213.385C147.339 212.065 147.591 210.893 148.095 209.869C148.607 208.837 149.323 208.025 150.243 207.433C151.163 206.841 152.243 206.545 153.483 206.545C154.715 206.545 155.751 206.845 156.591 207.445C157.431 208.045 158.067 208.861 158.499 209.893C158.931 210.925 159.147 212.089 159.147 213.385C159.147 214.681 158.927 215.845 158.487 216.877C158.055 217.909 157.407 218.725 156.543 219.325C155.679 219.925 154.603 220.225 153.315 220.225ZM153.843 217.321C154.571 217.321 155.151 217.157 155.583 216.829C156.023 216.501 156.339 216.041 156.531 215.449C156.723 214.857 156.819 214.169 156.819 213.385C156.819 212.601 156.723 211.913 156.531 211.321C156.339 210.729 156.031 210.269 155.607 209.941C155.191 209.613 154.643 209.449 153.963 209.449C153.235 209.449 152.635 209.629 152.163 209.989C151.699 210.341 151.355 210.817 151.131 211.417C150.907 212.009 150.795 212.665 150.795 213.385C150.795 214.113 150.903 214.777 151.119 215.377C151.335 215.969 151.667 216.441 152.115 216.793C152.563 217.145 153.139 217.321 153.843 217.321ZM156.819 219.865V210.985H156.411V202.585H159.699V219.865H156.819ZM167.864 219.865V202.585H173.456C173.592 202.585 173.872 202.589 174.296 202.597C174.72 202.605 175.128 202.633 175.52 202.681C176.912 202.849 178.092 203.333 179.06 204.133C180.028 204.933 180.764 205.949 181.268 207.181C181.772 208.413 182.024 209.761 182.024 211.225C182.024 212.689 181.772 214.037 181.268 215.269C180.764 216.501 180.028 217.517 179.06 218.317C178.092 219.117 176.912 219.601 175.52 219.769C175.128 219.817 174.72 219.845 174.296 219.853C173.872 219.861 173.592 219.865 173.456 219.865H167.864ZM171.176 216.793H173.456C173.672 216.793 173.964 216.789 174.332 216.781C174.7 216.765 175.032 216.729 175.328 216.673C176.08 216.521 176.692 216.169 177.164 215.617C177.644 215.065 177.996 214.401 178.22 213.625C178.452 212.849 178.568 212.049 178.568 211.225C178.568 210.361 178.448 209.541 178.208 208.765C177.976 207.989 177.62 207.333 177.14 206.797C176.66 206.261 176.056 205.921 175.328 205.777C175.032 205.713 174.7 205.677 174.332 205.669C173.964 205.661 173.672 205.657 173.456 205.657H171.176V216.793ZM185.143 205.105V202.225H188.407V205.105H185.143ZM185.143 219.865V206.905H188.407V219.865H185.143ZM197.068 220.225C195.436 220.225 194.116 219.857 193.108 219.121C192.108 218.377 191.5 217.329 191.284 215.977L194.62 215.473C194.756 216.081 195.056 216.557 195.52 216.901C195.992 217.245 196.588 217.417 197.308 217.417C197.9 217.417 198.356 217.305 198.676 217.081C198.996 216.849 199.156 216.529 199.156 216.121C199.156 215.865 199.092 215.661 198.964 215.509C198.836 215.349 198.548 215.193 198.1 215.041C197.66 214.889 196.972 214.689 196.036 214.441C194.98 214.169 194.136 213.865 193.504 213.529C192.872 213.193 192.416 212.793 192.136 212.329C191.856 211.857 191.716 211.289 191.716 210.625C191.716 209.793 191.928 209.073 192.352 208.465C192.776 207.849 193.372 207.377 194.14 207.049C194.916 206.713 195.828 206.545 196.876 206.545C197.892 206.545 198.792 206.701 199.576 207.013C200.36 207.325 200.992 207.769 201.472 208.345C201.96 208.921 202.26 209.601 202.372 210.385L199.036 210.985C198.98 210.505 198.772 210.125 198.412 209.845C198.052 209.565 197.564 209.401 196.948 209.353C196.348 209.313 195.864 209.393 195.496 209.593C195.136 209.793 194.956 210.081 194.956 210.457C194.956 210.681 195.032 210.869 195.184 211.021C195.344 211.173 195.668 211.329 196.156 211.489C196.652 211.649 197.404 211.857 198.412 212.113C199.396 212.369 200.184 212.669 200.776 213.013C201.376 213.349 201.812 213.757 202.084 214.237C202.356 214.709 202.492 215.281 202.492 215.953C202.492 217.281 202.012 218.325 201.052 219.085C200.092 219.845 198.764 220.225 197.068 220.225ZM210.841 220.225C209.497 220.225 208.345 219.925 207.385 219.325C206.425 218.725 205.689 217.909 205.177 216.877C204.665 215.845 204.409 214.681 204.409 213.385C204.409 212.073 204.673 210.901 205.201 209.869C205.737 208.837 206.489 208.025 207.457 207.433C208.425 206.841 209.569 206.545 210.889 206.545C212.417 206.545 213.697 206.933 214.729 207.709C215.769 208.477 216.433 209.529 216.721 210.865L213.457 211.729C213.265 211.057 212.929 210.533 212.449 210.157C211.977 209.781 211.441 209.593 210.841 209.593C210.153 209.593 209.589 209.761 209.149 210.097C208.709 210.425 208.385 210.877 208.177 211.453C207.969 212.021 207.865 212.665 207.865 213.385C207.865 214.513 208.113 215.429 208.609 216.133C209.113 216.829 209.857 217.177 210.841 217.177C211.577 217.177 212.137 217.009 212.521 216.673C212.905 216.337 213.193 215.857 213.385 215.233L216.721 215.929C216.353 217.305 215.657 218.365 214.633 219.109C213.609 219.853 212.345 220.225 210.841 220.225ZM224.602 220.225C223.298 220.225 222.154 219.933 221.17 219.349C220.186 218.765 219.418 217.961 218.866 216.937C218.322 215.905 218.05 214.721 218.05 213.385C218.05 212.033 218.33 210.845 218.89 209.821C219.45 208.789 220.222 207.985 221.206 207.409C222.19 206.833 223.322 206.545 224.602 206.545C225.906 206.545 227.05 206.837 228.034 207.421C229.026 208.005 229.798 208.813 230.35 209.845C230.902 210.869 231.178 212.049 231.178 213.385C231.178 214.729 230.898 215.917 230.338 216.949C229.786 217.973 229.014 218.777 228.022 219.361C227.038 219.937 225.898 220.225 224.602 220.225ZM224.602 217.177C225.65 217.177 226.43 216.825 226.942 216.121C227.462 215.409 227.722 214.497 227.722 213.385C227.722 212.233 227.458 211.313 226.93 210.625C226.41 209.937 225.634 209.593 224.602 209.593C223.89 209.593 223.306 209.753 222.85 210.073C222.394 210.393 222.054 210.837 221.83 211.405C221.614 211.973 221.506 212.633 221.506 213.385C221.506 214.545 221.766 215.469 222.286 216.157C222.814 216.837 223.586 217.177 224.602 217.177ZM236.852 219.865L232.148 206.905H235.412L238.484 215.881L241.556 206.905H244.82L240.116 219.865H236.852ZM252.544 220.225C251.216 220.225 250.044 219.941 249.028 219.373C248.02 218.797 247.228 218.009 246.652 217.009C246.084 216.001 245.8 214.849 245.8 213.553C245.8 212.137 246.08 210.905 246.64 209.857C247.2 208.809 247.972 207.997 248.956 207.421C249.94 206.837 251.072 206.545 252.352 206.545C253.712 206.545 254.868 206.865 255.82 207.505C256.772 208.145 257.476 209.045 257.932 210.205C258.388 211.365 258.548 212.729 258.412 214.297H255.184V213.097C255.184 211.777 254.972 210.829 254.548 210.253C254.132 209.669 253.448 209.377 252.496 209.377C251.384 209.377 250.564 209.717 250.036 210.397C249.516 211.069 249.256 212.065 249.256 213.385C249.256 214.593 249.516 215.529 250.036 216.193C250.564 216.849 251.336 217.177 252.352 217.177C252.992 217.177 253.54 217.037 253.996 216.757C254.452 216.477 254.8 216.073 255.04 215.545L258.304 216.481C257.816 217.665 257.044 218.585 255.988 219.241C254.94 219.897 253.792 220.225 252.544 220.225ZM248.248 214.297V211.873H256.84V214.297H248.248ZM261.121 219.865V206.905H264.001V210.073L263.689 209.665C263.857 209.217 264.081 208.809 264.361 208.441C264.641 208.073 264.985 207.769 265.393 207.529C265.705 207.337 266.045 207.189 266.413 207.085C266.781 206.973 267.161 206.905 267.553 206.881C267.945 206.849 268.337 206.857 268.729 206.905V209.953C268.369 209.841 267.949 209.805 267.469 209.845C266.997 209.877 266.569 209.985 266.185 210.169C265.801 210.345 265.477 210.581 265.213 210.877C264.949 211.165 264.749 211.509 264.613 211.909C264.477 212.301 264.409 212.745 264.409 213.241V219.865H261.121ZM272.199 225.625L274.695 218.761L274.743 220.777L269.103 206.905H272.487L276.279 216.721H275.511L279.279 206.905H282.543L275.223 225.625H272.199Z" fill="#18BC9C"/>
<defs>
<clipPath id="clip0_0_1">
<rect width="375" height="333" fill="white"/>
</clipPath>
</defs>
</svg>
